<svg width="32" height="32" viewBox="0 0 32 32" fill="none" xmlns="http://www.w3.org/2000/svg">
  <defs>
    <linearGradient id="faviconGradient" x1="0%" y1="0%" x2="100%" y2="100%">
      <stop offset="0%" stopColor="#3b82f6" />
      <stop offset="50%" stopColor="#06b6d4" />
      <stop offset="100%" stopColor="#2563eb" />
    </linearGradient>
  </defs>
  <rect width="32" height="32" rx="6" fill="url(#faviconGradient)"/>
  <path d="M16 8C11.582 8 8 11.582 8 16s3.582 8 8 8 8-3.582 8-8-3.582-8-8-8zm0 2c3.314 0 6 2.686 6 6s-2.686 6-6 6-6-2.686-6-6 2.686-6 6-6z" fill="white" opacity="0.9"/>
  <path d="M16 12.5c-.552 0-1 .448-1 1h2v-1zm0 2v1.5h-1c0 .552.448 1 1 1s1-.448 1-1-1-1-1-1z" fill="white" opacity="0.9"/>
  <circle cx="16" cy="20" r="1" fill="white" opacity="0.9"/>
</svg>
